<svg xmlns="http://www.w3.org/2000/svg" width="87" height="24" viewBox="0 0 87 24">
  <g id="reciup_logo-01" transform="translate(-5.408 -5.156)">
    <path id="패스_76066" data-name="패스 76066" d="M276.843,41.237a18.6,18.6,0,0,0,1.97-.943,6.026,6.026,0,0,0,2.595-3.217,17.1,17.1,0,0,0,.7-5.247c.027-3.3.03-6.608.042-9.912,0-.47,0-.463.478-.463,2.354,0,4.7.012,7.058-.007a6.972,6.972,0,0,1,3.7.918,5.7,5.7,0,0,1,2.854,4.12,9.02,9.02,0,0,1-.152,3.953,5.251,5.251,0,0,1-3.259,3.657,16.963,16.963,0,0,1-4.486.57.558.558,0,0,1-.6-.627c0-.975.017-1.95,0-2.926,0-.316.112-.4.408-.388a4.054,4.054,0,0,0,1.916-.323,2.186,2.186,0,0,0,1.294-1.734,4.272,4.272,0,0,0,0-1.356,2.2,2.2,0,0,0-1.754-1.863,7.192,7.192,0,0,0-2.518-.132c-.124.149-.045.386-.045.582-.022,2.926-.01,5.854-.075,8.78a6.557,6.557,0,0,1-2.13,4.859,7.334,7.334,0,0,1-3.754,1.734,12.255,12.255,0,0,1-4.239-.03Z" transform="translate(-203.978 -12.667)" fill="#f13622"/>
    <path id="패스_76067" data-name="패스 76067" d="M246.937,16.563c0-1.84,0-3.679.007-5.519,0-.281-.09-.354-.361-.34-.376.02-.754,0-1.132,0-.085,0-.194.039-.246-.051s.047-.156.1-.222q1-1.323,2.008-2.643c.629-.831,1.259-1.656,1.878-2.494.159-.215.234-.142.356.024,1.194,1.583,2.4,3.161,3.592,4.744.144.191.468.41.388.564-.109.205-.465.064-.712.086-.284.024-.652-.112-.836.054s-.06.535-.06.813q0,4.588.022,9.176a6.245,6.245,0,0,0,.366,1.984,2.454,2.454,0,0,0,2.465,1.82,3.42,3.42,0,0,0,1.468-.222c.072-.029.167-.11.241-.022.055.066-.017.139-.045.21a6.426,6.426,0,0,1-4.132,3.794,1.126,1.126,0,0,1-.744,0A6.406,6.406,0,0,1,247,22.606c-.149-1.967-.032-3.938-.065-5.909v-.129h0Z" transform="translate(-180.187 0)" fill="#f13622"/>
    <path id="패스_76068" data-name="패스 76068" d="M10.392,20.379c1.015,0,2.03-.01,3.048,0a21.685,21.685,0,0,1,2.572.174,11.575,11.575,0,0,1,2.558.627,6.3,6.3,0,0,1,2.963,2.182,5.655,5.655,0,0,1,1,2.433,8.892,8.892,0,0,1,.1.928,4.133,4.133,0,0,1-.425,1.963,5.7,5.7,0,0,1-.973,1.547,6.48,6.48,0,0,1-1.627,1.4c-.08.045-.082.08-.042.149a.646.646,0,0,0,.159.189,10.284,10.284,0,0,1,1.177.975,6.887,6.887,0,0,1,1.732,2.975,13.667,13.667,0,0,1,.276,1.518,4.133,4.133,0,0,0,.2.9,2.151,2.151,0,0,0,.363.607,3.268,3.268,0,0,1,.627.911c.015.042.03.087.042.129a.525.525,0,0,1-.4.7,1.94,1.94,0,0,1-.532.077h-5.54a1.388,1.388,0,0,1-.607-.137.44.44,0,0,1-.286-.565,1.7,1.7,0,0,1,.276-.634,7.288,7.288,0,0,0,.4-.619,1.283,1.283,0,0,0,.164-.582,6.638,6.638,0,0,0-.891-3.65,4.46,4.46,0,0,0-1.413-1.431.974.974,0,0,0-.585-.162c-.9.035-1.8.04-2.694.03-.187,0-.189,0-.189.192v4.287A2.155,2.155,0,0,0,12.414,39c.2.219.373.458.552.694a.624.624,0,0,1-.435,1.035,1.634,1.634,0,0,1-.313.032H6.6a2.609,2.609,0,0,1-.819-.119.467.467,0,0,1-.338-.659,3.009,3.009,0,0,1,.54-.921A2.453,2.453,0,0,0,6.5,37.906,7.159,7.159,0,0,0,6.558,36.9V26.982q0-1.627.007-3.252a3.368,3.368,0,0,0-.159-.968,1.575,1.575,0,0,0-.274-.488,7.087,7.087,0,0,1-.567-.821,1.123,1.123,0,0,1-.147-.5.365.365,0,0,1,.147-.326,1.216,1.216,0,0,1,.682-.221c.687-.062,1.376-.025,2.062-.032s1.386,0,2.077,0v.01Zm1.458,6.277c.02.694-.04,1.55.03,2.406a2.693,2.693,0,0,0,.274,1.152,1.369,1.369,0,0,0,1.02.761,6.18,6.18,0,0,0,1.406.04,2.449,2.449,0,0,0,2.115-1.408,4.722,4.722,0,0,0,.458-2.368,7.076,7.076,0,0,0-.527-2.406A3.912,3.912,0,0,0,14.917,22.9a3.283,3.283,0,0,0-1.572-.47,1.242,1.242,0,0,0-1.03.333,1.567,1.567,0,0,0-.363.729,4.2,4.2,0,0,0-.1.863c0,.714,0,1.428,0,2.3Z" transform="translate(0 -11.858)" fill="#f90"/>
    <path id="패스_76069" data-name="패스 76069" d="M89.906,60.211a7.563,7.563,0,0,1-5.043-1.876,6.71,6.71,0,0,1-1.893-3.2,7.853,7.853,0,0,1-.274-2.49,6.873,6.873,0,0,1,3.232-5.6,7.279,7.279,0,0,1,2.57-.965,7.51,7.51,0,0,1,2.416-.087,6.156,6.156,0,0,1,3.12,1.112,3.751,3.751,0,0,1,1.455,2.286,3.17,3.17,0,0,1-.468,2.4,4.632,4.632,0,0,1-1.368,1.316,6.79,6.79,0,0,1-2.7,1.013,16.391,16.391,0,0,1-2.7.254c-.035,0-.082-.015-.1.022s.022.075.045.107a10.823,10.823,0,0,0,.679.866,3.969,3.969,0,0,0,1.324,1.01,4.071,4.071,0,0,0,1.861.276,3.858,3.858,0,0,0,1.319-.236,3.418,3.418,0,0,0,1.314-.806,1.089,1.089,0,0,1,.5-.326.5.5,0,0,1,.664.448,1.894,1.894,0,0,1-.082.689,4.747,4.747,0,0,1-.965,1.786,5.466,5.466,0,0,1-2.3,1.562,7.308,7.308,0,0,1-2.59.43Zm.95-10.292v-.274a2.521,2.521,0,0,0-.527-1.55,1.466,1.466,0,0,0-2.428.055,3.8,3.8,0,0,0-.567,1.463,6.6,6.6,0,0,0,.025,2.361,2.614,2.614,0,0,0,.167.687.217.217,0,0,0,.2.149,3.963,3.963,0,0,0,1.525-.172,1.973,1.973,0,0,0,1.117-.8,3.42,3.42,0,0,0,.5-1.923Z" transform="translate(-58.07 -31.061)" fill="#f90"/>
    <path id="패스_76070" data-name="패스 76070" d="M148.437,60.21a7.331,7.331,0,0,1-1.682-.182,7.214,7.214,0,0,1-4.963-10.354,6.417,6.417,0,0,1,1.241-1.664,6.7,6.7,0,0,1,2.851-1.689,8.461,8.461,0,0,1,3.518-.331,7.444,7.444,0,0,1,2.908.891,4.461,4.461,0,0,1,1.647,1.572,3.235,3.235,0,0,1,.468,1.821,1.417,1.417,0,0,1-.652,1.137,2.209,2.209,0,0,1-1.637.313,2.657,2.657,0,0,1-1.866-1.271c-.353-.527-.632-1.095-.93-1.649a3.626,3.626,0,0,0-.953-1.192,1.514,1.514,0,0,0-1.878.095,2.515,2.515,0,0,0-.7,1.1,5.551,5.551,0,0,0-.276,1.6,9.491,9.491,0,0,0,.182,2.266A5.155,5.155,0,0,0,147.25,55.5a4.2,4.2,0,0,0,4.667.846,3.445,3.445,0,0,0,1.244-.913c.107-.127.224-.246.341-.366a.745.745,0,0,1,.311-.184.494.494,0,0,1,.689.483,3.688,3.688,0,0,1-.2,1.184,4.668,4.668,0,0,1-.9,1.682,5.282,5.282,0,0,1-2.366,1.562,7.945,7.945,0,0,1-2.595.413Z" transform="translate(-101.893 -31.055)" fill="#f90"/>
    <path id="패스_76071" data-name="패스 76071" d="M206.381,51.843c0,1.612.02,3.222-.01,4.834a2.17,2.17,0,0,0,.662,1.545,4.58,4.58,0,0,1,.383.493c.363.542.164.993-.485,1.1a2.065,2.065,0,0,1-.351.03h-5.538a1.656,1.656,0,0,1-.709-.139.452.452,0,0,1-.309-.577,1.425,1.425,0,0,1,.229-.575c.119-.169.236-.343.361-.51a2.744,2.744,0,0,0,.515-1.448c.02-.216.025-.43.025-.647V51.475a2.6,2.6,0,0,0-.485-1.58,8.035,8.035,0,0,1-.55-.8.517.517,0,0,1,.127-.739,4.975,4.975,0,0,1,.933-.585c1.219-.647,2.461-1.249,3.717-1.819a2.464,2.464,0,0,1,.413-.144.768.768,0,0,1,1.027.672,6.985,6.985,0,0,1,.05,1.02c0,1.45,0,2.9,0,4.346h0Z" transform="translate(-146.233 -30.938)" fill="#f90"/>
    <path id="패스_76072" data-name="패스 76072" d="M205.115,22.909a3.433,3.433,0,0,1-2.655-1.229,2.547,2.547,0,0,1,.206-3.473,3.721,3.721,0,0,1,4.672-.286,2.624,2.624,0,0,1,.973,2.985,2.691,2.691,0,0,1-1.2,1.431,3.875,3.875,0,0,1-1.4.527,4.636,4.636,0,0,1-.592.047Z" transform="translate(-147.633 -9.072)" fill="#f90"/>
  </g>
</svg>
